<mxfile host="app.diagrams.net" agent="Mozilla/5.0 (Windows NT 10.0; Win64; x64) AppleWebKit/537.36 (KHTML, like Gecko) Chrome/134.0.0.0 Safari/537.36" version="26.2.3">
  <diagram id="Ht1M8jgEwFfnCIfOTk4-" name="Page-1">
    <mxGraphModel dx="870" dy="478" grid="1" gridSize="10" guides="1" tooltips="1" connect="1" arrows="1" fold="1" page="1" pageScale="1" pageWidth="1169" pageHeight="827" math="0" shadow="0">
      <root>
        <mxCell id="0" />
        <mxCell id="1" parent="0" />
        <mxCell id="-QjtrjUzRDEMRZ5MF8oH-18" value="ML Model Executable" style="outlineConnect=0;fontColor=#232F3E;gradientColor=none;fillColor=#116D5B;strokeColor=none;dashed=0;verticalLabelPosition=bottom;verticalAlign=top;align=center;html=1;fontSize=12;fontStyle=0;aspect=fixed;pointerEvents=1;shape=mxgraph.aws4.sagemaker_model;" parent="1" vertex="1">
          <mxGeometry x="120" y="845" width="78" height="78" as="geometry" />
        </mxCell>
        <mxCell id="-QjtrjUzRDEMRZ5MF8oH-19" value="AWS IoT Greengrass Core" style="outlineConnect=0;fontColor=#232F3E;gradientColor=#60A337;gradientDirection=north;fillColor=#277116;strokeColor=#ffffff;dashed=0;verticalLabelPosition=bottom;verticalAlign=top;align=center;html=1;fontSize=12;fontStyle=0;aspect=fixed;shape=mxgraph.aws4.resourceIcon;resIcon=mxgraph.aws4.iot_core;" parent="1" vertex="1">
          <mxGeometry x="121" y="949.5" width="78" height="78" as="geometry" />
        </mxCell>
        <mxCell id="-QjtrjUzRDEMRZ5MF8oH-20" value="Video Camera" style="outlineConnect=0;fontColor=#232F3E;gradientColor=none;fillColor=#277116;strokeColor=none;dashed=0;verticalLabelPosition=bottom;verticalAlign=top;align=center;html=1;fontSize=12;fontStyle=0;aspect=fixed;pointerEvents=1;shape=mxgraph.aws4.camera;" parent="1" vertex="1">
          <mxGeometry x="121" y="1057" width="78" height="78" as="geometry" />
        </mxCell>
        <mxCell id="-QjtrjUzRDEMRZ5MF8oH-21" value="AWS IoT Core" style="outlineConnect=0;fontColor=#232F3E;gradientColor=#60A337;gradientDirection=north;fillColor=#277116;strokeColor=#ffffff;dashed=0;verticalLabelPosition=bottom;verticalAlign=top;align=center;html=1;fontSize=12;fontStyle=0;aspect=fixed;shape=mxgraph.aws4.resourceIcon;resIcon=mxgraph.aws4.internet_of_things;" parent="1" vertex="1">
          <mxGeometry x="336" y="865" width="78" height="78" as="geometry" />
        </mxCell>
        <mxCell id="-QjtrjUzRDEMRZ5MF8oH-22" value="AWS IoT Analytics" style="outlineConnect=0;fontColor=#232F3E;gradientColor=#60A337;gradientDirection=north;fillColor=#277116;strokeColor=#ffffff;dashed=0;verticalLabelPosition=bottom;verticalAlign=top;align=center;html=1;fontSize=12;fontStyle=0;aspect=fixed;shape=mxgraph.aws4.resourceIcon;resIcon=mxgraph.aws4.iot_analytics;" parent="1" vertex="1">
          <mxGeometry x="516" y="862" width="78" height="78" as="geometry" />
        </mxCell>
        <mxCell id="-QjtrjUzRDEMRZ5MF8oH-23" value="AWS IoT Events" style="outlineConnect=0;fontColor=#232F3E;gradientColor=#60A337;gradientDirection=north;fillColor=#277116;strokeColor=#ffffff;dashed=0;verticalLabelPosition=bottom;verticalAlign=top;align=center;html=1;fontSize=12;fontStyle=0;aspect=fixed;shape=mxgraph.aws4.resourceIcon;resIcon=mxgraph.aws4.iot_events;" parent="1" vertex="1">
          <mxGeometry x="705" y="862" width="78" height="78" as="geometry" />
        </mxCell>
        <mxCell id="-QjtrjUzRDEMRZ5MF8oH-24" value="Amazon SNS" style="outlineConnect=0;fontColor=#232F3E;gradientColor=#F34482;gradientDirection=north;fillColor=#BC1356;strokeColor=#ffffff;dashed=0;verticalLabelPosition=bottom;verticalAlign=top;align=center;html=1;fontSize=12;fontStyle=0;aspect=fixed;shape=mxgraph.aws4.resourceIcon;resIcon=mxgraph.aws4.sns;" parent="1" vertex="1">
          <mxGeometry x="886" y="862" width="78" height="78" as="geometry" />
        </mxCell>
        <mxCell id="-QjtrjUzRDEMRZ5MF8oH-25" value="Amazon Kinesis&lt;br&gt;Video Streams&lt;br&gt;" style="outlineConnect=0;fontColor=#232F3E;gradientColor=#945DF2;gradientDirection=north;fillColor=#5A30B5;strokeColor=#ffffff;dashed=0;verticalLabelPosition=bottom;verticalAlign=top;align=center;html=1;fontSize=12;fontStyle=0;aspect=fixed;shape=mxgraph.aws4.resourceIcon;resIcon=mxgraph.aws4.kinesis_video_streams;" parent="1" vertex="1">
          <mxGeometry x="468" y="1028" width="78" height="78" as="geometry" />
        </mxCell>
        <mxCell id="-QjtrjUzRDEMRZ5MF8oH-26" value="Mobile Application" style="outlineConnect=0;fontColor=#232F3E;gradientColor=#F54749;gradientDirection=north;fillColor=#C7131F;strokeColor=#ffffff;dashed=0;verticalLabelPosition=bottom;verticalAlign=top;align=center;html=1;fontSize=12;fontStyle=0;aspect=fixed;shape=mxgraph.aws4.resourceIcon;resIcon=mxgraph.aws4.mobile;" parent="1" vertex="1">
          <mxGeometry x="769" y="1027" width="78" height="78" as="geometry" />
        </mxCell>
        <mxCell id="-QjtrjUzRDEMRZ5MF8oH-32" value="7" style="rounded=1;whiteSpace=wrap;html=1;fillColor=#007CBD;strokeColor=none;fontColor=#FFFFFF;fontStyle=1;fontSize=22;" parent="1" vertex="1">
          <mxGeometry x="446" y="820" width="40" height="38" as="geometry" />
        </mxCell>
        <mxCell id="-QjtrjUzRDEMRZ5MF8oH-33" value="8" style="rounded=1;whiteSpace=wrap;html=1;fillColor=#007CBD;strokeColor=none;fontColor=#FFFFFF;fontStyle=1;fontSize=22;" parent="1" vertex="1">
          <mxGeometry x="816" y="820" width="40" height="38" as="geometry" />
        </mxCell>
        <mxCell id="-QjtrjUzRDEMRZ5MF8oH-34" value="9" style="rounded=1;whiteSpace=wrap;html=1;fillColor=#007CBD;strokeColor=none;fontColor=#FFFFFF;fontStyle=1;fontSize=22;" parent="1" vertex="1">
          <mxGeometry x="336" y="1008" width="40" height="38" as="geometry" />
        </mxCell>
        <mxCell id="-QjtrjUzRDEMRZ5MF8oH-35" value="10" style="rounded=1;whiteSpace=wrap;html=1;fillColor=#007CBD;strokeColor=none;fontColor=#FFFFFF;fontStyle=1;fontSize=22;" parent="1" vertex="1">
          <mxGeometry x="636" y="1008" width="40" height="38" as="geometry" />
        </mxCell>
        <mxCell id="-QjtrjUzRDEMRZ5MF8oH-47" value="共情对话数据合成架构" style="text;html=1;resizable=0;points=[];autosize=1;align=left;verticalAlign=top;spacingTop=-4;fontSize=30;fontStyle=1" parent="1" vertex="1">
          <mxGeometry x="56.5" y="96.5" width="330" height="40" as="geometry" />
        </mxCell>
        <mxCell id="SCVMTBWpLvtzJIhz15lM-1" value="" style="line;strokeWidth=2;html=1;fontSize=14;" parent="1" vertex="1">
          <mxGeometry x="52.5" y="139.5" width="1137.5" height="10.73" as="geometry" />
        </mxCell>
        <mxCell id="SCVMTBWpLvtzJIhz15lM-2" value="&lt;span&gt;网络数据&lt;/span&gt;" style="text;html=1;resizable=0;points=[];autosize=1;align=left;verticalAlign=top;spacingTop=-4;fontSize=14;fontStyle=1" parent="1" vertex="1">
          <mxGeometry x="72.5" y="210" width="80" height="20" as="geometry" />
        </mxCell>
        <mxCell id="SCVMTBWpLvtzJIhz15lM-22" value="&lt;span&gt;Label&lt;/span&gt;" style="text;html=1;resizable=0;points=[];autosize=1;align=left;verticalAlign=top;spacingTop=-4;fontSize=14;fontStyle=1" parent="1" vertex="1">
          <mxGeometry x="120" y="810" width="50" height="20" as="geometry" />
        </mxCell>
        <mxCell id="SCVMTBWpLvtzJIhz15lM-23" value="" style="shape=curlyBracket;whiteSpace=wrap;html=1;rounded=1;fontSize=14;flipH=1;" parent="1" vertex="1">
          <mxGeometry x="165.5" y="257.5" width="20" height="290" as="geometry" />
        </mxCell>
        <mxCell id="SCVMTBWpLvtzJIhz15lM-24" value="Video Events" style="edgeStyle=orthogonalEdgeStyle;html=1;endArrow=open;elbow=vertical;startArrow=none;endFill=0;strokeColor=#545B64;rounded=0;fontSize=14;strokeWidth=2;" parent="1" edge="1">
          <mxGeometry x="-0.037" y="20" width="100" relative="1" as="geometry">
            <mxPoint x="245" y="907" as="sourcePoint" />
            <mxPoint x="326" y="907" as="targetPoint" />
            <mxPoint as="offset" />
          </mxGeometry>
        </mxCell>
        <mxCell id="SCVMTBWpLvtzJIhz15lM-25" value="" style="edgeStyle=orthogonalEdgeStyle;html=1;endArrow=open;elbow=vertical;startArrow=none;endFill=0;strokeColor=#545B64;rounded=0;fontSize=14;strokeWidth=2;" parent="1" edge="1">
          <mxGeometry x="-0.037" y="20" width="100" relative="1" as="geometry">
            <mxPoint x="426.5" y="903.5" as="sourcePoint" />
            <mxPoint x="507.5" y="903.5" as="targetPoint" />
            <mxPoint as="offset" />
          </mxGeometry>
        </mxCell>
        <mxCell id="SCVMTBWpLvtzJIhz15lM-26" value="" style="edgeStyle=orthogonalEdgeStyle;html=1;endArrow=open;elbow=vertical;startArrow=none;endFill=0;strokeColor=#545B64;rounded=0;fontSize=14;strokeWidth=2;" parent="1" edge="1">
          <mxGeometry x="-0.037" y="20" width="100" relative="1" as="geometry">
            <mxPoint x="606" y="903.5" as="sourcePoint" />
            <mxPoint x="687" y="903.5" as="targetPoint" />
            <mxPoint as="offset" />
          </mxGeometry>
        </mxCell>
        <mxCell id="SCVMTBWpLvtzJIhz15lM-27" value="" style="edgeStyle=orthogonalEdgeStyle;html=1;endArrow=open;elbow=vertical;startArrow=none;endFill=0;strokeColor=#545B64;rounded=0;fontSize=14;strokeWidth=2;" parent="1" edge="1">
          <mxGeometry x="-0.037" y="20" width="100" relative="1" as="geometry">
            <mxPoint x="795" y="901" as="sourcePoint" />
            <mxPoint x="876" y="901" as="targetPoint" />
            <mxPoint as="offset" />
          </mxGeometry>
        </mxCell>
        <mxCell id="SCVMTBWpLvtzJIhz15lM-28" value="Video Stream" style="edgeStyle=orthogonalEdgeStyle;html=1;endArrow=open;elbow=vertical;startArrow=none;endFill=0;strokeColor=#545B64;rounded=0;fontSize=14;strokeWidth=2;" parent="1" edge="1">
          <mxGeometry x="0.0038" y="-11" width="100" relative="1" as="geometry">
            <mxPoint x="245.5" y="1066.5" as="sourcePoint" />
            <mxPoint x="456" y="1067" as="targetPoint" />
            <mxPoint as="offset" />
            <Array as="points">
              <mxPoint x="351" y="1067" />
            </Array>
          </mxGeometry>
        </mxCell>
        <mxCell id="SCVMTBWpLvtzJIhz15lM-29" value="" style="edgeStyle=orthogonalEdgeStyle;html=1;endArrow=open;elbow=vertical;startArrow=none;endFill=0;strokeColor=#545B64;rounded=0;fontSize=14;strokeWidth=2;" parent="1" edge="1">
          <mxGeometry x="0.0038" y="-11" width="100" relative="1" as="geometry">
            <mxPoint x="558.5714285714287" y="1066.7142857142858" as="sourcePoint" />
            <mxPoint x="746" y="1067" as="targetPoint" />
            <mxPoint as="offset" />
            <Array as="points">
              <mxPoint x="664" y="1067" />
            </Array>
          </mxGeometry>
        </mxCell>
        <mxCell id="Duc4K9M7gjFmPuZsD6SS-3" value="&lt;font style=&quot;font-size: 15px;&quot;&gt;背景数据合成&lt;/font&gt;" style="points=[[0,0],[0.25,0],[0.5,0],[0.75,0],[1,0],[1,0.25],[1,0.5],[1,0.75],[1,1],[0.75,1],[0.5,1],[0.25,1],[0,1],[0,0.75],[0,0.5],[0,0.25]];outlineConnect=0;gradientColor=none;html=1;whiteSpace=wrap;fontSize=12;fontStyle=0;container=1;pointerEvents=0;collapsible=0;recursiveResize=0;shape=mxgraph.aws4.group;grIcon=mxgraph.aws4.group_region;strokeColor=#00A4A6;fillColor=none;verticalAlign=top;align=left;spacingLeft=30;fontColor=#147EBA;dashed=1;" vertex="1" parent="1">
          <mxGeometry x="317" y="199.5" width="483" height="300.5" as="geometry" />
        </mxCell>
        <mxCell id="Duc4K9M7gjFmPuZsD6SS-17" value="" style="sketch=0;outlineConnect=0;fontColor=#232F3E;gradientColor=none;fillColor=#E7157B;strokeColor=none;dashed=0;verticalLabelPosition=bottom;verticalAlign=top;align=center;html=1;fontSize=12;fontStyle=0;aspect=fixed;pointerEvents=1;shape=mxgraph.aws4.organizations_management_account;" vertex="1" parent="Duc4K9M7gjFmPuZsD6SS-3">
          <mxGeometry x="19" y="155" width="74" height="78" as="geometry" />
        </mxCell>
        <mxCell id="Duc4K9M7gjFmPuZsD6SS-22" value="" style="edgeStyle=none;orthogonalLoop=1;jettySize=auto;html=1;rounded=0;dashed=1;" edge="1" parent="Duc4K9M7gjFmPuZsD6SS-3">
          <mxGeometry width="100" relative="1" as="geometry">
            <mxPoint x="43.00000000000004" y="316.21000000000004" as="sourcePoint" />
            <mxPoint x="43.00000000000004" y="224.79000000000002" as="targetPoint" />
            <Array as="points" />
          </mxGeometry>
        </mxCell>
        <mxCell id="SCVMTBWpLvtzJIhz15lM-21" value="患者LLM" style="text;html=1;resizable=0;points=[];autosize=1;align=left;verticalAlign=top;spacingTop=-4;fontSize=16;fontStyle=1" parent="Duc4K9M7gjFmPuZsD6SS-3" vertex="1">
          <mxGeometry x="15" y="128" width="90" height="30" as="geometry" />
        </mxCell>
        <mxCell id="Duc4K9M7gjFmPuZsD6SS-24" value="&lt;span&gt;提供标签&lt;/span&gt;" style="text;html=1;resizable=0;points=[];autosize=1;align=left;verticalAlign=top;spacingTop=-4;fontSize=14;fontStyle=1" vertex="1" parent="Duc4K9M7gjFmPuZsD6SS-3">
          <mxGeometry x="53" y="260.5" width="80" height="20" as="geometry" />
        </mxCell>
        <mxCell id="Duc4K9M7gjFmPuZsD6SS-25" value="" style="edgeStyle=orthogonalEdgeStyle;html=1;endArrow=open;elbow=vertical;startArrow=none;endFill=0;strokeColor=#545B64;rounded=0;fontSize=14;strokeWidth=2;" edge="1" parent="Duc4K9M7gjFmPuZsD6SS-3">
          <mxGeometry x="-0.037" y="20" width="100" relative="1" as="geometry">
            <mxPoint x="101" y="200.5" as="sourcePoint" />
            <mxPoint x="143" y="200.5" as="targetPoint" />
            <mxPoint as="offset" />
          </mxGeometry>
        </mxCell>
        <mxCell id="Duc4K9M7gjFmPuZsD6SS-26" value="" style="sketch=0;outlineConnect=0;fontColor=#232F3E;gradientColor=none;fillColor=#8C4FFF;strokeColor=none;dashed=0;verticalLabelPosition=bottom;verticalAlign=top;align=center;html=1;fontSize=12;fontStyle=0;aspect=fixed;pointerEvents=1;shape=mxgraph.aws4.redshift_query_editor_v20_light;" vertex="1" parent="Duc4K9M7gjFmPuZsD6SS-3">
          <mxGeometry x="153" y="155" width="78" height="78" as="geometry" />
        </mxCell>
        <mxCell id="Duc4K9M7gjFmPuZsD6SS-27" value="&lt;span&gt;合成&lt;/span&gt;" style="text;html=1;resizable=0;points=[];autosize=1;align=left;verticalAlign=top;spacingTop=-4;fontSize=14;fontStyle=1" vertex="1" parent="Duc4K9M7gjFmPuZsD6SS-3">
          <mxGeometry x="101" y="170.5" width="50" height="20" as="geometry" />
        </mxCell>
        <mxCell id="Duc4K9M7gjFmPuZsD6SS-28" value="" style="sketch=0;outlineConnect=0;fontColor=#232F3E;gradientColor=none;fillColor=#8C4FFF;strokeColor=none;dashed=0;verticalLabelPosition=bottom;verticalAlign=top;align=center;html=1;fontSize=12;fontStyle=0;aspect=fixed;pointerEvents=1;shape=mxgraph.aws4.opensearch_service_data_node;" vertex="1" parent="Duc4K9M7gjFmPuZsD6SS-3">
          <mxGeometry x="223" y="40.5" width="78" height="78" as="geometry" />
        </mxCell>
        <mxCell id="Duc4K9M7gjFmPuZsD6SS-29" value="" style="sketch=0;outlineConnect=0;fontColor=#232F3E;gradientColor=none;fillColor=#8C4FFF;strokeColor=none;dashed=0;verticalLabelPosition=bottom;verticalAlign=top;align=center;html=1;fontSize=12;fontStyle=0;aspect=fixed;pointerEvents=1;shape=mxgraph.aws4.opensearch_service_cluster_administrator_node;" vertex="1" parent="Duc4K9M7gjFmPuZsD6SS-3">
          <mxGeometry x="363" y="40.5" width="78" height="78" as="geometry" />
        </mxCell>
        <mxCell id="Duc4K9M7gjFmPuZsD6SS-30" value="" style="html=1;endArrow=open;elbow=vertical;startArrow=none;endFill=0;strokeColor=#545B64;rounded=0;fontSize=14;strokeWidth=2;" edge="1" parent="Duc4K9M7gjFmPuZsD6SS-3">
          <mxGeometry x="-0.037" y="20" width="100" relative="1" as="geometry">
            <mxPoint x="202" y="156.31" as="sourcePoint" />
            <mxPoint x="230.2434779595667" y="120.49822735330213" as="targetPoint" />
            <mxPoint as="offset" />
          </mxGeometry>
        </mxCell>
        <mxCell id="Duc4K9M7gjFmPuZsD6SS-31" value="" style="sketch=0;outlineConnect=0;fontColor=#232F3E;gradientColor=none;fillColor=#E7157B;strokeColor=none;dashed=0;verticalLabelPosition=bottom;verticalAlign=top;align=center;html=1;fontSize=12;fontStyle=0;aspect=fixed;pointerEvents=1;shape=mxgraph.aws4.organizations_management_account;" vertex="1" parent="Duc4K9M7gjFmPuZsD6SS-3">
          <mxGeometry x="301" y="156" width="74" height="78" as="geometry" />
        </mxCell>
        <mxCell id="Duc4K9M7gjFmPuZsD6SS-33" value="" style="sketch=0;outlineConnect=0;fontColor=#232F3E;gradientColor=none;fillColor=#E7157B;strokeColor=none;dashed=0;verticalLabelPosition=bottom;verticalAlign=top;align=center;html=1;fontSize=12;fontStyle=0;aspect=fixed;pointerEvents=1;shape=mxgraph.aws4.organizations_management_account;" vertex="1" parent="Duc4K9M7gjFmPuZsD6SS-3">
          <mxGeometry x="393" y="156" width="74" height="78" as="geometry" />
        </mxCell>
        <mxCell id="Duc4K9M7gjFmPuZsD6SS-34" value="" style="sketch=0;outlineConnect=0;fontColor=#232F3E;gradientColor=none;fillColor=#E7157B;strokeColor=none;dashed=0;verticalLabelPosition=bottom;verticalAlign=top;align=center;html=1;fontSize=12;fontStyle=0;aspect=fixed;pointerEvents=1;shape=mxgraph.aws4.organizations_management_account;" vertex="1" parent="Duc4K9M7gjFmPuZsD6SS-3">
          <mxGeometry x="101" y="48" width="74" height="78" as="geometry" />
        </mxCell>
        <mxCell id="Duc4K9M7gjFmPuZsD6SS-35" value="&lt;span&gt;专家LLM&lt;/span&gt;" style="text;html=1;resizable=0;points=[];autosize=1;align=left;verticalAlign=top;spacingTop=-4;fontSize=14;fontStyle=1" vertex="1" parent="Duc4K9M7gjFmPuZsD6SS-3">
          <mxGeometry x="109" y="28" width="80" height="20" as="geometry" />
        </mxCell>
        <mxCell id="Duc4K9M7gjFmPuZsD6SS-36" value="" style="edgeStyle=none;orthogonalLoop=1;jettySize=auto;html=1;rounded=0;dashed=1;" edge="1" parent="Duc4K9M7gjFmPuZsD6SS-3">
          <mxGeometry width="100" relative="1" as="geometry">
            <mxPoint x="177" y="87.2400000000001" as="sourcePoint" />
            <mxPoint x="215" y="86.66" as="targetPoint" />
            <Array as="points" />
          </mxGeometry>
        </mxCell>
        <mxCell id="Duc4K9M7gjFmPuZsD6SS-37" value="&lt;span&gt;辅助&lt;/span&gt;" style="text;html=1;resizable=0;points=[];autosize=1;align=left;verticalAlign=top;spacingTop=-4;fontSize=14;fontStyle=1" vertex="1" parent="Duc4K9M7gjFmPuZsD6SS-3">
          <mxGeometry x="181" y="60.5" width="50" height="20" as="geometry" />
        </mxCell>
        <mxCell id="Duc4K9M7gjFmPuZsD6SS-38" value="&lt;span&gt;去重填充处理&lt;/span&gt;" style="text;html=1;resizable=0;points=[];autosize=1;align=left;verticalAlign=top;spacingTop=-4;fontSize=14;fontStyle=1" vertex="1" parent="Duc4K9M7gjFmPuZsD6SS-3">
          <mxGeometry x="217" y="17.5" width="110" height="20" as="geometry" />
        </mxCell>
        <mxCell id="Duc4K9M7gjFmPuZsD6SS-40" value="" style="edgeStyle=orthogonalEdgeStyle;html=1;endArrow=open;elbow=vertical;startArrow=none;endFill=0;strokeColor=#545B64;rounded=0;fontSize=14;strokeWidth=2;" edge="1" parent="Duc4K9M7gjFmPuZsD6SS-3">
          <mxGeometry x="-0.037" y="20" width="100" relative="1" as="geometry">
            <mxPoint x="313" y="80.5" as="sourcePoint" />
            <mxPoint x="355" y="80.5" as="targetPoint" />
            <mxPoint as="offset" />
          </mxGeometry>
        </mxCell>
        <mxCell id="Duc4K9M7gjFmPuZsD6SS-41" value="" style="edgeStyle=none;orthogonalLoop=1;jettySize=auto;html=1;rounded=0;dashed=1;" edge="1" parent="Duc4K9M7gjFmPuZsD6SS-3" target="Duc4K9M7gjFmPuZsD6SS-29">
          <mxGeometry width="100" relative="1" as="geometry">
            <mxPoint x="343" y="154.8900000000001" as="sourcePoint" />
            <mxPoint x="381" y="154.30999999999995" as="targetPoint" />
            <Array as="points" />
          </mxGeometry>
        </mxCell>
        <mxCell id="Duc4K9M7gjFmPuZsD6SS-42" value="" style="edgeStyle=none;orthogonalLoop=1;jettySize=auto;html=1;rounded=0;dashed=1;" edge="1" parent="Duc4K9M7gjFmPuZsD6SS-3" target="Duc4K9M7gjFmPuZsD6SS-29">
          <mxGeometry width="100" relative="1" as="geometry">
            <mxPoint x="423" y="156.0000000000001" as="sourcePoint" />
            <mxPoint x="452" y="119.11000000000001" as="targetPoint" />
            <Array as="points" />
          </mxGeometry>
        </mxCell>
        <mxCell id="Duc4K9M7gjFmPuZsD6SS-43" value="&lt;span&gt;志愿者LLM&lt;/span&gt;" style="text;html=1;resizable=0;points=[];autosize=1;align=left;verticalAlign=top;spacingTop=-4;fontSize=14;fontStyle=1" vertex="1" parent="Duc4K9M7gjFmPuZsD6SS-3">
          <mxGeometry x="293" y="233.5" width="90" height="20" as="geometry" />
        </mxCell>
        <mxCell id="Duc4K9M7gjFmPuZsD6SS-44" value="&lt;span&gt;专家LLM&lt;/span&gt;" style="text;html=1;resizable=0;points=[];autosize=1;align=left;verticalAlign=top;spacingTop=-4;fontSize=14;fontStyle=1" vertex="1" parent="Duc4K9M7gjFmPuZsD6SS-3">
          <mxGeometry x="390" y="234" width="80" height="20" as="geometry" />
        </mxCell>
        <mxCell id="Duc4K9M7gjFmPuZsD6SS-45" value="数据评分处理" style="text;html=1;resizable=0;points=[];autosize=1;align=left;verticalAlign=top;spacingTop=-4;fontSize=14;fontStyle=1" vertex="1" parent="Duc4K9M7gjFmPuZsD6SS-3">
          <mxGeometry x="357" y="17.5" width="110" height="20" as="geometry" />
        </mxCell>
        <mxCell id="Duc4K9M7gjFmPuZsD6SS-7" value="" style="sketch=0;outlineConnect=0;fontColor=#232F3E;gradientColor=none;fillColor=#8C4FFF;strokeColor=none;dashed=0;verticalLabelPosition=bottom;verticalAlign=top;align=center;html=1;fontSize=12;fontStyle=0;aspect=fixed;pointerEvents=1;shape=mxgraph.aws4.search_documents;" vertex="1" parent="1">
          <mxGeometry x="69.5" y="357.5" width="68" height="78" as="geometry" />
        </mxCell>
        <mxCell id="Duc4K9M7gjFmPuZsD6SS-8" value="" style="sketch=0;outlineConnect=0;fontColor=#232F3E;gradientColor=none;fillColor=#8C4FFF;strokeColor=none;dashed=0;verticalLabelPosition=bottom;verticalAlign=top;align=center;html=1;fontSize=12;fontStyle=0;aspect=fixed;pointerEvents=1;shape=mxgraph.aws4.aws_glue_data_quality;" vertex="1" parent="1">
          <mxGeometry x="73.5" y="490" width="78" height="78" as="geometry" />
        </mxCell>
        <mxCell id="Duc4K9M7gjFmPuZsD6SS-9" value="" style="sketch=0;outlineConnect=0;fontColor=#232F3E;gradientColor=none;fillColor=#8C4FFF;strokeColor=none;dashed=0;verticalLabelPosition=bottom;verticalAlign=top;align=center;html=1;fontSize=12;fontStyle=0;aspect=fixed;pointerEvents=1;shape=mxgraph.aws4.opensearch_observability;" vertex="1" parent="1">
          <mxGeometry x="67.5" y="236.5" width="78" height="78" as="geometry" />
        </mxCell>
        <mxCell id="Duc4K9M7gjFmPuZsD6SS-10" value="&lt;span&gt;公开文档&lt;/span&gt;" style="text;html=1;resizable=0;points=[];autosize=1;align=left;verticalAlign=top;spacingTop=-4;fontSize=14;fontStyle=1" vertex="1" parent="1">
          <mxGeometry x="71.5" y="334.5" width="80" height="20" as="geometry" />
        </mxCell>
        <mxCell id="Duc4K9M7gjFmPuZsD6SS-11" value="&lt;span&gt;现有数据集&lt;/span&gt;" style="text;html=1;resizable=0;points=[];autosize=1;align=left;verticalAlign=top;spacingTop=-4;fontSize=14;fontStyle=1" vertex="1" parent="1">
          <mxGeometry x="62.5" y="460" width="100" height="20" as="geometry" />
        </mxCell>
        <mxCell id="Duc4K9M7gjFmPuZsD6SS-14" value="&lt;font style=&quot;font-size: 15px;&quot;&gt;对话数据合成&lt;/font&gt;" style="points=[[0,0],[0.25,0],[0.5,0],[0.75,0],[1,0],[1,0.25],[1,0.5],[1,0.75],[1,1],[0.75,1],[0.5,1],[0.25,1],[0,1],[0,0.75],[0,0.5],[0,0.25]];outlineConnect=0;gradientColor=none;html=1;whiteSpace=wrap;fontSize=12;fontStyle=0;container=1;pointerEvents=0;collapsible=0;recursiveResize=0;shape=mxgraph.aws4.group;grIcon=mxgraph.aws4.group_region;strokeColor=#00A4A6;fillColor=none;verticalAlign=top;align=left;spacingLeft=30;fontColor=#147EBA;dashed=1;" vertex="1" parent="1">
          <mxGeometry x="860" y="199.5" width="400" height="300.5" as="geometry" />
        </mxCell>
        <mxCell id="Duc4K9M7gjFmPuZsD6SS-47" value="" style="sketch=0;outlineConnect=0;fontColor=#232F3E;gradientColor=none;fillColor=#8C4FFF;strokeColor=none;dashed=0;verticalLabelPosition=bottom;verticalAlign=top;align=center;html=1;fontSize=12;fontStyle=0;aspect=fixed;pointerEvents=1;shape=mxgraph.aws4.opensearch_service_traces;" vertex="1" parent="Duc4K9M7gjFmPuZsD6SS-14">
          <mxGeometry x="30" y="70.5" width="78" height="78" as="geometry" />
        </mxCell>
        <mxCell id="Duc4K9M7gjFmPuZsD6SS-48" value="" style="sketch=0;outlineConnect=0;fontColor=#232F3E;gradientColor=none;fillColor=#E7157B;strokeColor=none;dashed=0;verticalLabelPosition=bottom;verticalAlign=top;align=center;html=1;fontSize=12;fontStyle=0;aspect=fixed;pointerEvents=1;shape=mxgraph.aws4.organizations_management_account;" vertex="1" parent="Duc4K9M7gjFmPuZsD6SS-14">
          <mxGeometry x="87" y="190.5" width="74" height="78" as="geometry" />
        </mxCell>
        <mxCell id="Duc4K9M7gjFmPuZsD6SS-52" value="" style="sketch=0;outlineConnect=0;fontColor=#232F3E;gradientColor=none;fillColor=#E7157B;strokeColor=none;dashed=0;verticalLabelPosition=bottom;verticalAlign=top;align=center;html=1;fontSize=12;fontStyle=0;aspect=fixed;pointerEvents=1;shape=mxgraph.aws4.organizations_management_account;" vertex="1" parent="Duc4K9M7gjFmPuZsD6SS-14">
          <mxGeometry x="180" y="190.5" width="74" height="78" as="geometry" />
        </mxCell>
        <mxCell id="Duc4K9M7gjFmPuZsD6SS-53" value="" style="sketch=0;outlineConnect=0;fontColor=#232F3E;gradientColor=none;fillColor=#8C4FFF;strokeColor=none;dashed=0;verticalLabelPosition=bottom;verticalAlign=top;align=center;html=1;fontSize=12;fontStyle=0;aspect=fixed;pointerEvents=1;shape=mxgraph.aws4.redshift_query_editor_v20_light;" vertex="1" parent="Duc4K9M7gjFmPuZsD6SS-14">
          <mxGeometry x="161" y="70.5" width="78" height="78" as="geometry" />
        </mxCell>
        <mxCell id="Duc4K9M7gjFmPuZsD6SS-54" value="" style="sketch=0;outlineConnect=0;fontColor=#232F3E;gradientColor=none;fillColor=#8C4FFF;strokeColor=none;dashed=0;verticalLabelPosition=bottom;verticalAlign=top;align=center;html=1;fontSize=12;fontStyle=0;aspect=fixed;pointerEvents=1;shape=mxgraph.aws4.aws_glue_data_quality;" vertex="1" parent="Duc4K9M7gjFmPuZsD6SS-14">
          <mxGeometry x="290" y="70.5" width="78" height="78" as="geometry" />
        </mxCell>
        <mxCell id="Duc4K9M7gjFmPuZsD6SS-18" value="" style="sketch=0;outlineConnect=0;fontColor=#232F3E;gradientColor=none;fillColor=#E7157B;strokeColor=none;dashed=0;verticalLabelPosition=bottom;verticalAlign=top;align=center;html=1;fontSize=12;fontStyle=0;aspect=fixed;pointerEvents=1;shape=mxgraph.aws4.organizations_account;" vertex="1" parent="Duc4K9M7gjFmPuZsD6SS-14">
          <mxGeometry x="287" y="190.5" width="74" height="78" as="geometry" />
        </mxCell>
        <mxCell id="Duc4K9M7gjFmPuZsD6SS-55" value="&lt;span&gt;患者LLM&lt;/span&gt;" style="text;html=1;resizable=0;points=[];autosize=1;align=left;verticalAlign=top;spacingTop=-4;fontSize=14;fontStyle=1" vertex="1" parent="Duc4K9M7gjFmPuZsD6SS-14">
          <mxGeometry x="87" y="268.5" width="80" height="20" as="geometry" />
        </mxCell>
        <mxCell id="Duc4K9M7gjFmPuZsD6SS-56" value="&lt;span&gt;医生LLM&lt;/span&gt;" style="text;html=1;resizable=0;points=[];autosize=1;align=left;verticalAlign=top;spacingTop=-4;fontSize=14;fontStyle=1" vertex="1" parent="Duc4K9M7gjFmPuZsD6SS-14">
          <mxGeometry x="178" y="269.5" width="80" height="20" as="geometry" />
        </mxCell>
        <mxCell id="Duc4K9M7gjFmPuZsD6SS-57" value="&lt;span&gt;人工&lt;/span&gt;" style="text;html=1;resizable=0;points=[];autosize=1;align=left;verticalAlign=top;spacingTop=-4;fontSize=14;fontStyle=1" vertex="1" parent="Duc4K9M7gjFmPuZsD6SS-14">
          <mxGeometry x="299" y="268.5" width="50" height="20" as="geometry" />
        </mxCell>
        <mxCell id="Duc4K9M7gjFmPuZsD6SS-58" value="" style="edgeStyle=orthogonalEdgeStyle;html=1;endArrow=open;elbow=vertical;startArrow=none;endFill=0;strokeColor=#545B64;rounded=0;fontSize=14;strokeWidth=2;" edge="1" parent="Duc4K9M7gjFmPuZsD6SS-14">
          <mxGeometry x="-0.037" y="20" width="100" relative="1" as="geometry">
            <mxPoint x="116" y="112.49999999999994" as="sourcePoint" />
            <mxPoint x="156" y="113.32999999999998" as="targetPoint" />
            <mxPoint as="offset" />
          </mxGeometry>
        </mxCell>
        <mxCell id="Duc4K9M7gjFmPuZsD6SS-59" value="" style="edgeStyle=orthogonalEdgeStyle;html=1;endArrow=open;elbow=vertical;startArrow=none;endFill=0;strokeColor=#545B64;rounded=0;fontSize=14;strokeWidth=2;" edge="1" parent="Duc4K9M7gjFmPuZsD6SS-14">
          <mxGeometry x="-0.037" y="20" width="100" relative="1" as="geometry">
            <mxPoint x="240" y="111.49999999999994" as="sourcePoint" />
            <mxPoint x="280" y="112.32999999999998" as="targetPoint" />
            <mxPoint as="offset" />
          </mxGeometry>
        </mxCell>
        <mxCell id="Duc4K9M7gjFmPuZsD6SS-16" value="&lt;span&gt;预处理和选取样例&lt;/span&gt;" style="text;html=1;resizable=0;points=[];autosize=1;align=left;verticalAlign=top;spacingTop=-4;fontSize=14;fontStyle=1" vertex="1" parent="1">
          <mxGeometry x="185.5" y="370" width="140" height="20" as="geometry" />
        </mxCell>
        <mxCell id="Duc4K9M7gjFmPuZsD6SS-19" value="" style="sketch=0;outlineConnect=0;fontColor=#232F3E;gradientColor=none;fillColor=#8C4FFF;strokeColor=none;dashed=0;verticalLabelPosition=bottom;verticalAlign=top;align=center;html=1;fontSize=12;fontStyle=0;aspect=fixed;pointerEvents=1;shape=mxgraph.aws4.aws_glue_data_quality;" vertex="1" parent="1">
          <mxGeometry x="330" y="520" width="78" height="78" as="geometry" />
        </mxCell>
        <mxCell id="Duc4K9M7gjFmPuZsD6SS-20" value="" style="edgeStyle=orthogonalEdgeStyle;html=1;endArrow=open;elbow=vertical;startArrow=none;endFill=0;strokeColor=#545B64;rounded=0;fontSize=14;strokeWidth=2;" edge="1" parent="1">
          <mxGeometry x="-0.037" y="20" width="100" relative="1" as="geometry">
            <mxPoint x="195" y="402.08" as="sourcePoint" />
            <mxPoint x="306" y="402.08" as="targetPoint" />
            <mxPoint as="offset" />
          </mxGeometry>
        </mxCell>
        <mxCell id="Duc4K9M7gjFmPuZsD6SS-23" value="参考数据集" style="text;html=1;resizable=0;points=[];autosize=1;align=left;verticalAlign=top;spacingTop=-4;fontSize=16;fontStyle=1" vertex="1" parent="1">
          <mxGeometry x="317" y="605" width="100" height="30" as="geometry" />
        </mxCell>
        <mxCell id="Duc4K9M7gjFmPuZsD6SS-46" value="" style="edgeStyle=orthogonalEdgeStyle;html=1;endArrow=open;elbow=vertical;startArrow=none;endFill=0;strokeColor=#545B64;rounded=0;fontSize=14;strokeWidth=2;" edge="1" parent="1">
          <mxGeometry x="-0.037" y="20" width="100" relative="1" as="geometry">
            <mxPoint x="807" y="401.8299999999999" as="sourcePoint" />
            <mxPoint x="847" y="402.65999999999997" as="targetPoint" />
            <mxPoint as="offset" />
          </mxGeometry>
        </mxCell>
      </root>
    </mxGraphModel>
  </diagram>
</mxfile>
